<svg id="Layer_1" data-name="Layer 1" xmlns="http://www.w3.org/2000/svg" width="1678.13" height="2666.24" viewBox="0 0 1678.13 2666.24">
  <defs>
    <style>
      .cls-1, .cls-3, .cls-4, .cls-5, .cls-6 {
        fill: none;
      }

      .cls-1, .cls-4, .cls-5, .cls-6 {
        stroke: #010101;
      }

      .cls-1 {
        stroke-miterlimit: 22.93;
        stroke-width: 0.3px;
      }

      .cls-2 {
        fill: #010101;
      }

      .cls-4, .cls-5, .cls-6 {
        stroke-linecap: round;
        stroke-linejoin: round;
      }

      .cls-4 {
        stroke-width: 0.24px;
      }

      .cls-6 {
        stroke-width: 0.5px;
      }
    </style>
  </defs>
  <g>
    <path class="cls-1" d="M1336.14,3021.24a76.38,76.38,0,0,1,0-44.81c-4.48-6.72-4.48-14.56,1.12-20.16s13.44-6.72,20.17-2.24a105.82,105.82,0,0,1,45.92,0,100.86,100.86,0,0,1,44.81,0,105.87,105.87,0,0,1,45.93,0,18.81,18.81,0,0,1,20.16,2.24c5.6,4.48,5.6,13.44,1.12,20.16a76.38,76.38,0,0,1,0,44.81,76.35,76.35,0,0,1,0,44.8c4.48,6.73,4.48,14.57-1.12,20.17s-13.44,6.72-20.16,2.24a105.87,105.87,0,0,1-45.93,0,100.86,100.86,0,0,1-44.81,0,105.82,105.82,0,0,1-45.92,0,18.82,18.82,0,0,1-20.17-2.24c-5.6-4.48-5.6-13.44-1.12-20.17A150.17,150.17,0,0,1,1336.14,3021.24Z" transform="translate(-604.03 -747.9)"/>
    <path class="cls-1" d="M1336.14,3021.24a76.38,76.38,0,0,1,0-44.81c-4.48-6.72-4.48-14.56,1.12-20.16s13.44-6.72,20.17-2.24a105.82,105.82,0,0,1,45.92,0,100.86,100.86,0,0,1,44.81,0,105.87,105.87,0,0,1,45.93,0,18.81,18.81,0,0,1,20.16,2.24c5.6,4.48,5.6,13.44,1.12,20.16a76.38,76.38,0,0,1,0,44.81,76.35,76.35,0,0,1,0,44.8c4.48,6.73,4.48,14.57-1.12,20.17s-13.44,6.72-20.16,2.24a105.87,105.87,0,0,1-45.93,0,100.86,100.86,0,0,1-44.81,0,105.82,105.82,0,0,1-45.92,0,18.82,18.82,0,0,1-20.17-2.24c-5.6-4.48-5.6-13.44-1.12-20.17A150.17,150.17,0,0,1,1336.14,3021.24Z" transform="translate(-604.03 -747.9)"/>
    <path class="cls-1" d="M1404.47,2954a100.86,100.86,0,0,1,44.81,0" transform="translate(-604.03 -747.9)"/>
    <path class="cls-1" d="M1405.59,2978.67c6.72,5.6,12.33,12.32,17.93,19" transform="translate(-604.03 -747.9)"/>
    <path class="cls-1" d="M1423.52,3001.07c-5.6,6.73-12.33,12.33-17.93,19" transform="translate(-604.03 -747.9)"/>
    <path class="cls-1" d="M1423.52,3045.88c-5.6,6.72-12.33,12.32-17.93,19" transform="translate(-604.03 -747.9)"/>
    <path class="cls-1" d="M1449.28,3088.45a100.86,100.86,0,0,1-44.81,0" transform="translate(-604.03 -747.9)"/>
    <path class="cls-1" d="M1405.59,3023.48c6.72,5.6,12.33,12.32,17.93,19" transform="translate(-604.03 -747.9)"/>
    <path class="cls-1" d="M1495.21,2954a18.81,18.81,0,0,1,20.16,2.24c5.6,4.48,5.6,13.44,1.12,20.16" transform="translate(-604.03 -747.9)"/>
    <line class="cls-1" x1="893.42" y1="2228.53" x2="911.35" y2="2228.53"/>
    <line class="cls-1" x1="911.35" y1="2273.34" x2="893.42" y2="2273.34"/>
    <line class="cls-1" x1="893.42" y1="2318.15" x2="911.35" y2="2318.15"/>
    <path class="cls-1" d="M1515.37,3066c4.48,6.73,4.48,14.57-1.12,20.17s-13.44,6.72-20.16,2.24" transform="translate(-604.03 -747.9)"/>
    <path class="cls-1" d="M1515.37,3021.24a76.35,76.35,0,0,1,0,44.8" transform="translate(-604.03 -747.9)"/>
    <path class="cls-1" d="M1515.37,2976.43a76.38,76.38,0,0,1,0,44.81" transform="translate(-604.03 -747.9)"/>
    <path class="cls-1" d="M1428,3042.52c5.6-6.72,12.32-13.44,17.92-19" transform="translate(-604.03 -747.9)"/>
    <path class="cls-1" d="M1450.4,3023.48c6.72,5.6,13.44,12.32,17.92,19" transform="translate(-604.03 -747.9)"/>
    <path class="cls-1" d="M1472.8,3042.52c6.73-6.72,12.33-13.44,17.93-19" transform="translate(-604.03 -747.9)"/>
    <path class="cls-1" d="M1468.32,3045.88c-5.6,6.72-12.32,13.44-17.92,19" transform="translate(-604.03 -747.9)"/>
    <path class="cls-1" d="M1495.21,3088.45a105.87,105.87,0,0,1-45.93,0" transform="translate(-604.03 -747.9)"/>
    <path class="cls-1" d="M1468.32,3043.64a2.24,2.24,0,1,1,2.24,2.24A2.41,2.41,0,0,1,1468.32,3043.64Z" transform="translate(-604.03 -747.9)"/>
    <path class="cls-1" d="M1468.32,3043.64a2.24,2.24,0,1,1,2.24,2.24A2.41,2.41,0,0,1,1468.32,3043.64Z" transform="translate(-604.03 -747.9)"/>
    <line class="cls-1" x1="891.18" y1="2320.39" x2="891.18" y2="2340.55"/>
    <path class="cls-1" d="M1490.73,3066a2.24,2.24,0,1,1,2.24,2.25S1490.73,3067.17,1490.73,3066Z" transform="translate(-604.03 -747.9)"/>
    <path class="cls-1" d="M1490.73,3066a2.24,2.24,0,1,1,2.24,2.25S1490.73,3067.17,1490.73,3066Z" transform="translate(-604.03 -747.9)"/>
    <path class="cls-1" d="M1493,3064.92c-6.72-6.72-13.44-12.32-17.92-19" transform="translate(-604.03 -747.9)"/>
    <path class="cls-1" d="M1423.52,3043.64a2.24,2.24,0,1,1,2.24,2.24A2.41,2.41,0,0,1,1423.52,3043.64Z" transform="translate(-604.03 -747.9)"/>
    <path class="cls-1" d="M1423.52,3043.64a2.24,2.24,0,1,1,2.24,2.24A2.41,2.41,0,0,1,1423.52,3043.64Z" transform="translate(-604.03 -747.9)"/>
    <path class="cls-1" d="M1445.92,3064.92c-6.72-5.6-13.44-12.32-17.92-19" transform="translate(-604.03 -747.9)"/>
    <line class="cls-1" x1="845.25" y1="2320.39" x2="845.25" y2="2340.55"/>
    <path class="cls-1" d="M1445.92,3066a2.24,2.24,0,1,1,2.24,2.25S1445.92,3067.17,1445.92,3066Z" transform="translate(-604.03 -747.9)"/>
    <path class="cls-1" d="M1445.92,3066a2.24,2.24,0,1,1,2.24,2.25S1445.92,3067.17,1445.92,3066Z" transform="translate(-604.03 -747.9)"/>
    <path class="cls-1" d="M1450.4,2978.67c6.72,5.6,13.44,12.32,17.92,19" transform="translate(-604.03 -747.9)"/>
    <path class="cls-1" d="M1468.32,3001.07c-5.6,6.73-12.32,13.45-17.92,19" transform="translate(-604.03 -747.9)"/>
    <path class="cls-1" d="M1449.28,2954a105.87,105.87,0,0,1,45.93,0" transform="translate(-604.03 -747.9)"/>
    <path class="cls-1" d="M1468.32,2998.83a2.24,2.24,0,1,1,2.24,2.24A2.41,2.41,0,0,1,1468.32,2998.83Z" transform="translate(-604.03 -747.9)"/>
    <path class="cls-1" d="M1468.32,2998.83a2.24,2.24,0,1,1,2.24,2.24A2.41,2.41,0,0,1,1468.32,2998.83Z" transform="translate(-604.03 -747.9)"/>
    <path class="cls-1" d="M1490.73,2976.43a2.24,2.24,0,1,1,2.24,2.24A2.41,2.41,0,0,1,1490.73,2976.43Z" transform="translate(-604.03 -747.9)"/>
    <path class="cls-1" d="M1490.73,2976.43a2.24,2.24,0,1,1,2.24,2.24A2.41,2.41,0,0,1,1490.73,2976.43Z" transform="translate(-604.03 -747.9)"/>
    <path class="cls-1" d="M1490.73,3021.24a2.24,2.24,0,1,1,2.24,2.24A2.41,2.41,0,0,1,1490.73,3021.24Z" transform="translate(-604.03 -747.9)"/>
    <path class="cls-1" d="M1490.73,3021.24a2.24,2.24,0,1,1,2.24,2.24A2.41,2.41,0,0,1,1490.73,3021.24Z" transform="translate(-604.03 -747.9)"/>
    <line class="cls-1" x1="891.18" y1="2225.17" x2="891.18" y2="2206.13"/>
    <path class="cls-1" d="M1472.8,2997.71c6.73-6.72,12.33-13.44,17.93-19" transform="translate(-604.03 -747.9)"/>
    <path class="cls-1" d="M1493,3020.12c-6.72-6.72-13.44-12.32-17.92-19" transform="translate(-604.03 -747.9)"/>
    <path class="cls-1" d="M1445.92,2976.43a2.24,2.24,0,1,1,2.24,2.24A2.41,2.41,0,0,1,1445.92,2976.43Z" transform="translate(-604.03 -747.9)"/>
    <path class="cls-1" d="M1445.92,2976.43a2.24,2.24,0,1,1,2.24,2.24A2.41,2.41,0,0,1,1445.92,2976.43Z" transform="translate(-604.03 -747.9)"/>
    <path class="cls-1" d="M1428,2997.71c5.6-6.72,12.32-13.44,17.92-19" transform="translate(-604.03 -747.9)"/>
    <path class="cls-1" d="M1445.92,3021.24a2.24,2.24,0,1,1,2.24,2.24A2.41,2.41,0,0,1,1445.92,3021.24Z" transform="translate(-604.03 -747.9)"/>
    <path class="cls-1" d="M1445.92,3021.24a2.24,2.24,0,1,1,2.24,2.24A2.41,2.41,0,0,1,1445.92,3021.24Z" transform="translate(-604.03 -747.9)"/>
    <path class="cls-1" d="M1445.92,3020.12c-6.72-5.6-13.44-12.32-17.92-19" transform="translate(-604.03 -747.9)"/>
    <path class="cls-1" d="M1423.52,2998.83a2.24,2.24,0,1,1,2.24,2.24A2.41,2.41,0,0,1,1423.52,2998.83Z" transform="translate(-604.03 -747.9)"/>
    <path class="cls-1" d="M1423.52,2998.83a2.24,2.24,0,1,1,2.24,2.24A2.41,2.41,0,0,1,1423.52,2998.83Z" transform="translate(-604.03 -747.9)"/>
    <line class="cls-1" x1="845.25" y1="2225.17" x2="845.25" y2="2206.13"/>
    <path class="cls-1" d="M1336.14,2976.43c-4.48-6.72-4.48-14.56,1.12-20.16s13.44-6.72,20.17-2.24" transform="translate(-604.03 -747.9)"/>
    <path class="cls-1" d="M1336.14,3021.24a76.38,76.38,0,0,1,0-44.81" transform="translate(-604.03 -747.9)"/>
    <path class="cls-1" d="M1357.43,3088.45a18.82,18.82,0,0,1-20.17-2.24c-5.6-4.48-5.6-13.44-1.12-20.17" transform="translate(-604.03 -747.9)"/>
    <path class="cls-1" d="M1336.14,3066a76.35,76.35,0,0,1,0-44.8" transform="translate(-604.03 -747.9)"/>
    <path class="cls-1" d="M1383.19,3042.52c6.72-6.72,12.32-13.44,17.92-19" transform="translate(-604.03 -747.9)"/>
    <path class="cls-1" d="M1360.79,3022.36c6.72,5.6,13.44,12.32,17.92,19" transform="translate(-604.03 -747.9)"/>
    <path class="cls-1" d="M1377.59,3043.64a2.24,2.24,0,1,1,2.24,2.24A2.41,2.41,0,0,1,1377.59,3043.64Z" transform="translate(-604.03 -747.9)"/>
    <path class="cls-1" d="M1377.59,3043.64a2.24,2.24,0,1,1,2.24,2.24A2.41,2.41,0,0,1,1377.59,3043.64Z" transform="translate(-604.03 -747.9)"/>
    <path class="cls-1" d="M1378.71,3045.88c-5.6,6.72-12.32,13.44-17.92,19" transform="translate(-604.03 -747.9)"/>
    <path class="cls-1" d="M1404.47,3088.45a105.82,105.82,0,0,1-45.92,0" transform="translate(-604.03 -747.9)"/>
    <path class="cls-1" d="M1401.11,3064.92c-6.72-6.72-13.44-12.32-17.92-19" transform="translate(-604.03 -747.9)"/>
    <line class="cls-1" x1="800.45" y1="2320.39" x2="800.45" y2="2340.55"/>
    <path class="cls-1" d="M1401.11,3066a2.24,2.24,0,1,1,2.24,2.25A2.41,2.41,0,0,1,1401.11,3066Z" transform="translate(-604.03 -747.9)"/>
    <path class="cls-1" d="M1401.11,3066a2.24,2.24,0,1,1,2.24,2.25A2.41,2.41,0,0,1,1401.11,3066Z" transform="translate(-604.03 -747.9)"/>
    <line class="cls-1" x1="753.4" y1="2320.39" x2="753.4" y2="2340.55"/>
    <line class="cls-1" x1="751.16" y1="2318.15" x2="732.12" y2="2318.15"/>
    <path class="cls-1" d="M1355.19,3066a2.24,2.24,0,1,1,2.24,2.25A2.41,2.41,0,0,1,1355.19,3066Z" transform="translate(-604.03 -747.9)"/>
    <path class="cls-1" d="M1355.19,3066a2.24,2.24,0,1,1,2.24,2.25A2.41,2.41,0,0,1,1355.19,3066Z" transform="translate(-604.03 -747.9)"/>
    <path class="cls-1" d="M1357.43,2954a105.82,105.82,0,0,1,45.92,0" transform="translate(-604.03 -747.9)"/>
    <path class="cls-1" d="M1360.79,2977.55c6.72,5.6,13.44,12.32,17.92,19" transform="translate(-604.03 -747.9)"/>
    <path class="cls-1" d="M1378.71,3001.07c-5.6,6.72-12.32,13.45-17.92,19" transform="translate(-604.03 -747.9)"/>
    <path class="cls-1" d="M1377.59,2998.83a2.24,2.24,0,1,1,2.24,2.24A2.41,2.41,0,0,1,1377.59,2998.83Z" transform="translate(-604.03 -747.9)"/>
    <path class="cls-1" d="M1377.59,2998.83a2.24,2.24,0,1,1,2.24,2.24A2.41,2.41,0,0,1,1377.59,2998.83Z" transform="translate(-604.03 -747.9)"/>
    <path class="cls-1" d="M1383.19,2997.71c6.72-6.72,12.32-13.44,17.92-19" transform="translate(-604.03 -747.9)"/>
    <path class="cls-1" d="M1401.11,3020.12c-6.72-6.72-13.44-12.32-17.92-19" transform="translate(-604.03 -747.9)"/>
    <path class="cls-1" d="M1401.11,3021.24a2.24,2.24,0,1,1,2.24,2.24A2.41,2.41,0,0,1,1401.11,3021.24Z" transform="translate(-604.03 -747.9)"/>
    <path class="cls-1" d="M1401.11,3021.24a2.24,2.24,0,1,1,2.24,2.24A2.41,2.41,0,0,1,1401.11,3021.24Z" transform="translate(-604.03 -747.9)"/>
    <path class="cls-1" d="M1401.11,2976.43a2.24,2.24,0,1,1,2.24,2.24A2.41,2.41,0,0,1,1401.11,2976.43Z" transform="translate(-604.03 -747.9)"/>
    <path class="cls-1" d="M1401.11,2976.43a2.24,2.24,0,1,1,2.24,2.24A2.41,2.41,0,0,1,1401.11,2976.43Z" transform="translate(-604.03 -747.9)"/>
    <line class="cls-1" x1="800.45" y1="2225.17" x2="800.45" y2="2206.13"/>
    <path class="cls-1" d="M1355.19,2976.43a2.24,2.24,0,1,1,2.24,2.24A2.41,2.41,0,0,1,1355.19,2976.43Z" transform="translate(-604.03 -747.9)"/>
    <path class="cls-1" d="M1355.19,2976.43a2.24,2.24,0,1,1,2.24,2.24A2.41,2.41,0,0,1,1355.19,2976.43Z" transform="translate(-604.03 -747.9)"/>
    <line class="cls-1" x1="751.16" y1="2228.53" x2="732.12" y2="2228.53"/>
    <path class="cls-1" d="M1355.19,3021.24a2.24,2.24,0,1,1,2.24,2.24A2.41,2.41,0,0,1,1355.19,3021.24Z" transform="translate(-604.03 -747.9)"/>
    <path class="cls-1" d="M1355.19,3021.24a2.24,2.24,0,1,1,2.24,2.24A2.41,2.41,0,0,1,1355.19,3021.24Z" transform="translate(-604.03 -747.9)"/>
    <line class="cls-1" x1="751.16" y1="2273.34" x2="732.12" y2="2273.34"/>
    <line class="cls-1" x1="753.4" y1="2225.17" x2="753.4" y2="2206.13"/>
  </g>
  <g>
    <polygon class="cls-1" points="1369.09 2033.09 1374.32 2054.01 1382.69 2073.89 1387.92 2082.26 1394.2 2090.63 1401.52 2095.86 1408.85 2100.05 1417.22 2104.23 1425.59 2104.23 1486.26 2104.23 1486.26 1916.97 1425.59 1916.97 1417.22 1919.06 1408.85 1921.15 1401.52 1926.38 1394.2 1930.57 1387.92 1938.94 1382.69 1947.31 1374.32 1968.23 1369.09 1989.15 1368.05 2011.12 1369.09 2033.09"/>
    <path class="cls-1" d="M2066.23,2794.59V2765.3m0-13.6v-29.29" transform="translate(-604.03 -747.9)"/>
    <line class="cls-1" x1="1425.59" y1="2084.35" x2="1438.14" y2="2084.35"/>
    <line class="cls-1" x1="1425.59" y1="1938.94" x2="1438.14" y2="1938.94"/>
    <path class="cls-1" d="M2001.37,2704.62a122.08,122.08,0,0,0-12.56,54.4c0,18.83,4.19,38.71,12.56,54.4" transform="translate(-604.03 -747.9)"/>
    <path class="cls-1" d="M2001.37,2813.42c6.27,11.51,15.69,18.83,28.24,18.83" transform="translate(-604.03 -747.9)"/>
    <path class="cls-1" d="M2042.17,2832.25c12.55,0,23-15.69,23-35.57" transform="translate(-604.03 -747.9)"/>
    <path class="cls-1" d="M2029.61,2686.84c-12.55,0-22,7.32-28.24,18.83" transform="translate(-604.03 -747.9)"/>
    <path class="cls-1" d="M2066.23,2722.41c0-19.88-9.42-35.57-23-35.57" transform="translate(-604.03 -747.9)"/>
    <path class="cls-1" d="M2035.89,2764.25c-2.09,0-5.23-2.09-5.23-5.23a4.94,4.94,0,0,1,5.23-5.23c3.14,0,5.23,1.05,5.23,5.23,0,2.09-2.09,5.23-5.23,5.23" transform="translate(-604.03 -747.9)"/>
    <line class="cls-1" x1="1471.62" y1="2018.45" x2="1460.11" y2="2017.4"/>
    <path class="cls-1" d="M2062,2764.25c0,1.05,1.05,1.05,2.09,1.05" transform="translate(-604.03 -747.9)"/>
    <line class="cls-1" x1="1458.02" y1="2016.35" x2="1444.42" y2="2015.31"/>
    <path class="cls-1" d="M2048.44,2754.84c-1,0-2.09,2.09-2.09,4.18s1.05,4.18,2.09,4.18" transform="translate(-604.03 -747.9)"/>
    <line class="cls-1" x1="1444.42" y1="2006.94" x2="1458.02" y2="2004.85"/>
    <path class="cls-1" d="M2064.13,2751.7c-1,0-2.09,0-2.09,1" transform="translate(-604.03 -747.9)"/>
    <line class="cls-1" x1="1460.11" y1="2004.85" x2="1471.62" y2="2002.75"/>
    <line class="cls-1" x1="1460.11" y1="2015.31" x2="1465.34" y2="2015.31"/>
    <line class="cls-1" x1="1465.34" y1="2006.94" x2="1460.11" y2="2006.94"/>
    <line class="cls-1" x1="1465.34" y1="2015.31" x2="1465.34" y2="2006.94"/>
    <path class="cls-1" d="M2064.13,2754.84c-2.09,0-4.18,1-4.18,4.18,0,1.05,1.05,4.18,4.18,4.18" transform="translate(-604.03 -747.9)"/>
    <path class="cls-1" d="M2062,2753.79c-1,0-2.09,2.09-2.09,5.23a11.1,11.1,0,0,0,2.09,5.23" transform="translate(-604.03 -747.9)"/>
    <path class="cls-1" d="M2075.64,2765.3c4.19,0,6.28-4.19,6.28-7.33s-2.09-7.32-6.28-7.32" transform="translate(-604.03 -747.9)"/>
  </g>
  <g>
    <polygon class="cls-1" points="1333.94 2182.82 1338.8 2184.76 1342.68 2187.67 1347.53 2192.52 1350.44 2197.37 1352.38 2203.19 1354.32 2208.04 1354.32 2213.86 1354.32 2357.45 1262.15 2357.45 1262.15 2213.86 1262.15 2208.04 1264.09 2203.19 1266.03 2197.37 1269.91 2192.52 1272.82 2187.67 1277.67 2184.76 1282.52 2182.82 1288.35 2181.84 1329.09 2181.84 1333.94 2182.82"/>
    <line class="cls-1" x1="1348.5" y1="2332.23" x2="1308.72" y2="2332.23"/>
    <line class="cls-1" x1="1308.72" y1="2332.23" x2="1268.94" y2="2332.23"/>
    <line class="cls-1" x1="1329.09" y1="2299.24" x2="1308.72" y2="2299.24"/>
    <line class="cls-1" x1="1341.71" y1="2215.8" x2="1341.71" y2="2282.75"/>
    <line class="cls-1" x1="1308.72" y1="2198.34" x2="1329.09" y2="2198.34"/>
    <line class="cls-1" x1="1288.35" y1="2198.34" x2="1308.72" y2="2198.34"/>
    <line class="cls-1" x1="1274.76" y1="2282.75" x2="1274.76" y2="2215.8"/>
    <line class="cls-1" x1="1308.72" y1="2299.24" x2="1288.35" y2="2299.24"/>
    <path class="cls-1" d="M1951.55,3080.12c3.88,0,6.8-3.88,6.8-7.76" transform="translate(-604.03 -747.9)"/>
    <path class="cls-1" d="M1866.18,3072.36c0,4.85,3.88,7.76,6.79,7.76" transform="translate(-604.03 -747.9)"/>
    <path class="cls-1" d="M1933.12,3047.14c6.79,0,12.61-6.79,12.61-15.53" transform="translate(-604.03 -747.9)"/>
    <path class="cls-1" d="M1945.73,2961.76c0-8.73-5.82-15.52-12.61-15.52" transform="translate(-604.03 -747.9)"/>
    <path class="cls-1" d="M1891.4,2947.21c-6.79,0-12.61,6.79-12.61,15.52" transform="translate(-604.03 -747.9)"/>
    <path class="cls-1" d="M1879.76,3030.64c0,8.74,5.82,15.53,12.61,15.53" transform="translate(-604.03 -747.9)"/>
    <path class="cls-1" d="M1914.69,3088.86c0,1-1,3.88-3.88,3.88s-3.89-1-3.89-3.88,1-3.88,3.89-3.88a3.55,3.55,0,0,1,3.88,3.88" transform="translate(-604.03 -747.9)"/>
  </g>
  <g>
    <polyline class="cls-1" points="1151.6 1611.31 1151.6 1763.02 977.17 1763.02 977.17 1611.31"/>
    <polyline class="cls-1" points="1151.6 1611.31 1151.6 1763.02 977.17 1763.02 977.17 1611.31"/>
    <polyline class="cls-1" points="977.17 1763.88 977.17 1612.16 1151.6 1612.42 1151.6 1764.14"/>
    <rect class="cls-1" x="1007.1" y="1763.02" width="118.69" height="15.48"/>
    <rect class="cls-1" x="1007.1" y="1763.02" width="118.69" height="15.48"/>
    <path class="cls-1" d="M1716.4,2434.54c0-26.83-20.64-48.5-48.51-48.5a48.44,48.44,0,0,0-48.5,48.5c0,25.81,21.67,48.51,48.5,48.51A48.45,48.45,0,0,0,1716.4,2434.54Z" transform="translate(-604.03 -747.9)"/>
    <path class="cls-1" d="M1716.4,2434.54c0-26.83-20.64-48.5-48.51-48.5a48.44,48.44,0,0,0-48.5,48.5c0,25.81,21.67,48.51,48.5,48.51A48.45,48.45,0,0,0,1716.4,2434.54Z" transform="translate(-604.03 -747.9)"/>
    <polyline class="cls-1" points="1092.77 1703.16 1063.87 1687.68 1038.07 1705.22"/>
    <line class="cls-1" x1="1063.87" y1="1656.72" x2="1063.87" y2="1687.68"/>
  </g>
  <g>
    <path class="cls-1" d="M1805.16,2483.05v-123l285.13.42v259.39H1949Z" transform="translate(-604.03 -747.9)"/>
    <path class="cls-1" d="M1815.78,2480.84V2371.16l263,.39v239.86c-47.09,0-77.91.14-125,.14C1905.83,2565.94,1863.73,2526.45,1815.78,2480.84Z" transform="translate(-604.03 -747.9)"/>
    <circle class="cls-1" cx="1334.16" cy="1744.25" r="9.1"/>
  </g>
  <g>
    <polygon class="cls-1" points="1313.44 863.76 1310.57 1381.92 937.66 1381.92 939.32 1575.61 1493.67 1575.61 1492.85 863.76 1313.44 863.76"/>
    <g>
      <rect class="cls-1" x="1331.38" y="863.76" width="161.46" height="204.61"/>
      <rect class="cls-1" x="1313.44" y="863.76" width="17.94" height="204.61"/>
      <g>
        <line class="cls-1" x1="1388.37" y1="966.07" x2="1435.86" y2="966.07"/>
        <line class="cls-1" x1="1395.76" y1="948.01" x2="1428.47" y2="984.12"/>
        <line class="cls-1" x1="1428.47" y1="948.01" x2="1395.76" y2="984.12"/>
        <line class="cls-1" x1="1412.64" y1="939.59" x2="1412.64" y2="993.75"/>
      </g>
    </g>
    <g>
      <path class="cls-1" d="M1750.21,2310.73v-153a6.08,6.08,0,0,0-6.33-6.33h-152a6.08,6.08,0,0,0-6.33,6.33v153q0,6.33,6.33,6.33h152Q1750.21,2315.47,1750.21,2310.73Z" transform="translate(-604.03 -747.9)"/>
      <path class="cls-1" d="M1723.83,2286.46H1669v-33.77a2.11,2.11,0,1,0-4.22,0v33.77h-58a6.09,6.09,0,0,1-6.34-6.34V2171.43a6.82,6.82,0,0,1,6.34-6.34h118.19a6.09,6.09,0,0,1,6.33,6.34v108.69c-1,4.22-3.16,6.34-7.38,6.34Z" transform="translate(-604.03 -747.9)"/>
      <path class="cls-1" d="M1667.89,2306.51c-3.16,0-7.38-4.22-7.38-7.39,0-2.11,2.11-5.28,5.27-6.33v-39.05a2.12,2.12,0,0,1,4.23,0v39.05c3.16,1.05,5.27,4.22,5.27,6.33,0,3.17-3.16,6.33-7.39,7.39Z" transform="translate(-604.03 -747.9)"/>
    </g>
    <g>
      <rect class="cls-1" x="1161.86" y="1394.4" width="178.1" height="179.4"/>
      <g>
        <polyline class="cls-1" points="1276.2 1495.71 1276.2 1473.55 1260.81 1473.55 1260.81 1495.71"/>
        <polyline class="cls-1" points="1245.42 1495.71 1245.42 1472.5 1235.52 1487.27 1225.63 1472.5 1225.63 1495.71"/>
      </g>
    </g>
    <g>
      <polygon class="cls-1" points="1333.49 1136.14 1480.18 1136.14 1480.18 1311.32 1333.49 1311.32 1333.49 1136.14"/>
      <line class="cls-1" x1="1348.27" y1="1223.73" x2="1390.48" y2="1223.73"/>
      <line class="cls-1" x1="1348.27" y1="1232.17" x2="1348.27" y2="1223.73"/>
      <line class="cls-1" x1="1390.48" y1="1232.17" x2="1390.48" y2="1223.73"/>
      <line class="cls-1" x1="1348.27" y1="1293.38" x2="1390.48" y2="1293.38"/>
      <line class="cls-1" x1="1348.27" y1="1293.38" x2="1348.27" y2="1284.94"/>
      <line class="cls-1" x1="1390.48" y1="1293.38" x2="1390.48" y2="1284.94"/>
      <path class="cls-1" d="M1950.18,1922c0-12.66,9.5-21.11,22.16-21.11a21.17,21.17,0,0,1,21.11,21.11c0,11.61-8.44,21.11-21.11,21.11s-22.16-8.45-22.16-21.11" transform="translate(-604.03 -747.9)"/>
      <path class="cls-1" d="M2006.11,1931.53c0-17.94,13.72-30.61,31.66-30.61s31.66,13.72,31.66,30.61c0,17.94-13.72,30.6-31.66,30.6s-31.66-12.66-31.66-30.6" transform="translate(-604.03 -747.9)"/>
      <path class="cls-1" d="M2019.83,1931.53c0-9.5,7.39-19,17.94-19s17.94,8.44,17.94,19-7.38,17.94-17.94,17.94-17.94-7.39-17.94-17.94" transform="translate(-604.03 -747.9)"/>
      <path class="cls-1" d="M1952.29,2006.45c0-11.6,8.45-21.1,21.11-21.1a21.11,21.11,0,1,1,0,42.21c-10.55,0-21.11-9.5-21.11-21.11" transform="translate(-604.03 -747.9)"/>
      <path class="cls-1" d="M2014.56,2014.9c0-14.78,12.66-27.44,27.43-27.44s27.44,12.66,27.44,27.44-12.66,27.44-27.44,27.44a27.24,27.24,0,0,1-27.43-27.44" transform="translate(-604.03 -747.9)"/>
    </g>
  </g>
  <g>
    <path class="cls-1" d="M1994.17,1325.69v-399h98.09v399Z" transform="translate(-604.03 -747.9)"/>
    <path class="cls-1" d="M2018.69,1029.19h0Z" transform="translate(-604.03 -747.9)"/>
    <polyline class="cls-1" points="1438.07 549.92 1438.07 192.12 1438.07 549.92"/>
    <polyline class="cls-1" points="1429.15 549.92 1429.15 192.12 1429.15 549.92"/>
    <path class="cls-1" d="M2033.18,940h0Z" transform="translate(-604.03 -747.9)"/>
    <polygon class="cls-1" points="1438.07 192.12 1438.07 192.12 1448.1 281.3 1438.07 192.12"/>
    <polygon class="cls-1" points="1449.22 281.3 1449.22 281.3 1449.22 460.75 1449.22 281.3"/>
    <polyline class="cls-1" points="1440.3 549.92 1449.22 460.75 1449.22 460.75 1440.3 549.92"/>
    <polygon class="cls-1" points="1414.66 460.75 1414.66 460.75 1414.66 282.41 1414.66 460.75"/>
    <polyline class="cls-1" points="1439.19 549.92 1448.1 460.75 1462.59 460.75 1462.59 282.41 1454.79 282.41 1449.22 282.41 1439.18 193.24 1430.27 193.24 1430.27 282.41 1415.78 282.41 1415.78 460.75 1429.15 460.75 1429.15 460.75 1429.15 549.92"/>
    <line class="cls-1" x1="1428.04" y1="281.3" x2="1414.66" y2="281.3"/>
    <line class="cls-1" x1="1439.18" y1="192.12" x2="1440.3" y2="549.92"/>
    <line class="cls-1" x1="1429.15" y1="192.12" x2="1429.15" y2="549.92"/>
    <line class="cls-1" x1="1439.18" y1="192.12" x2="1429.15" y2="192.12"/>
    <line class="cls-1" x1="1449.22" y1="281.3" x2="1439.18" y2="192.12"/>
    <line class="cls-1" x1="1449.22" y1="460.75" x2="1449.22" y2="281.3"/>
    <line class="cls-1" x1="1440.3" y1="549.92" x2="1449.22" y2="460.75"/>
    <line class="cls-1" x1="1414.66" y1="281.3" x2="1414.66" y2="460.75"/>
    <polyline class="cls-1" points="1429.15 549.92 1429.15 460.75 1414.66 460.75 1414.66 281.3 1429.15 281.3 1429.15 192.12 1439.18 192.12 1449.22 281.3 1455.9 281.3 1463.71 281.3 1463.71 460.75 1449.22 460.75 1440.3 549.92"/>
  </g>
  <g>
    <g>
      <path class="cls-1" d="M972,1100.16l396.3.57a16.29,16.29,0,0,0,16.28-16.29V900.19a16.28,16.28,0,0,0-16.28-16.28l-390.2-.58a16.29,16.29,0,0,0-16.29,16.29V1090a10.2,10.2,0,0,0,10.19,10.2" transform="translate(-604.03 -747.9)"/>
      <path class="cls-1" d="M972,1100.16l396.3.57a16.29,16.29,0,0,0,16.28-16.29V900.19a16.28,16.28,0,0,0-16.28-16.28l-390.2-.58a16.29,16.29,0,0,0-16.29,16.29V1090A10.2,10.2,0,0,0,972,1100.16Z" transform="translate(-604.03 -747.9)"/>
      <path class="cls-1" d="M971.92,1317.7,1188,1318a17.47,17.47,0,0,1,17.47,17.48v182.29a17.47,17.47,0,0,1-17.47,17.46l-216.06-.31a10.09,10.09,0,0,1-10.09-10.09v-197a10.1,10.1,0,0,1,10.09-10.1" transform="translate(-604.03 -747.9)"/>
      <path class="cls-1" d="M971.92,1317.7,1188,1318a17.47,17.47,0,0,1,17.47,17.48v182.29a17.47,17.47,0,0,1-17.47,17.46l-216.06-.31a10.09,10.09,0,0,1-10.09-10.09v-197A10.1,10.1,0,0,1,971.92,1317.7Z" transform="translate(-604.03 -747.9)"/>
      <path class="cls-1" d="M972.15,1317.7h217a16.29,16.29,0,0,0,16.29-16.28V1117.17c0-9,2-16-7-16l-220.37-.33a16.29,16.29,0,0,0-16.29,16.29V1307.4a10.3,10.3,0,0,0,10.31,10.3" transform="translate(-604.03 -747.9)"/>
      <path class="cls-1" d="M972.15,1317.7h217a16.29,16.29,0,0,0,16.29-16.28V1117.17c0-9,2-16-7-16l-220.37-.33a16.29,16.29,0,0,0-16.29,16.29V1307.4A10.3,10.3,0,0,0,972.15,1317.7Z" transform="translate(-604.03 -747.9)"/>
      <path class="cls-1" d="M971.46,1534.94h21.26a9.18,9.18,0,0,0,9.18-9.19V1326.9a9.18,9.18,0,0,0-9.18-9.19H971.46a9.19,9.19,0,0,0-9.2,9.19v198.85a9.19,9.19,0,0,0,9.2,9.19" transform="translate(-604.03 -747.9)"/>
      <path class="cls-1" d="M971.46,1534.94h21.26a9.18,9.18,0,0,0,9.18-9.19V1326.9a9.18,9.18,0,0,0-9.18-9.19H971.46a9.19,9.19,0,0,0-9.2,9.19v198.85A9.19,9.19,0,0,0,971.46,1534.94Z" transform="translate(-604.03 -747.9)"/>
      <path class="cls-1" d="M1001.91,1500.15v25.42a9.18,9.18,0,0,0,9.19,9.19h178.22a9.18,9.18,0,0,0,9.18-9.19v-25.42a9.18,9.18,0,0,0-9.18-9.19H1011.1a9.18,9.18,0,0,0-9.19,9.19" transform="translate(-604.03 -747.9)"/>
      <path class="cls-1" d="M1001.91,1500.15v25.42a9.18,9.18,0,0,0,9.19,9.19h178.22a9.18,9.18,0,0,0,9.18-9.19v-25.42a9.18,9.18,0,0,0-9.18-9.19H1011.1A9.18,9.18,0,0,0,1001.91,1500.15Z" transform="translate(-604.03 -747.9)"/>
      <path class="cls-1" d="M1001.91,894.4v25.42a9.18,9.18,0,0,0,9.19,9.18l169.51.58a9.18,9.18,0,0,0,9.18-9.18v-28c0-5.08-5.74-7-10.81-7l-167.88-.27A9.19,9.19,0,0,0,1001.91,894.4Z" transform="translate(-604.03 -747.9)"/>
      <path class="cls-1" d="M971.46,1317.91h21.26a9.18,9.18,0,0,0,9.18-9.19V1109.87a9.18,9.18,0,0,0-9.18-9.19H971.46a9.19,9.19,0,0,0-9.2,9.19v198.85a9.19,9.19,0,0,0,9.2,9.19" transform="translate(-604.03 -747.9)"/>
      <path class="cls-1" d="M971.46,1317.91h21.26a9.18,9.18,0,0,0,9.18-9.19V1109.87a9.18,9.18,0,0,0-9.18-9.19H971.46a9.19,9.19,0,0,0-9.2,9.19v198.85A9.19,9.19,0,0,0,971.46,1317.91Z" transform="translate(-604.03 -747.9)"/>
      <path class="cls-1" d="M971.46,1100.86h21.26a9.18,9.18,0,0,0,9.18-9.19V892.82a9.18,9.18,0,0,0-9.18-9.19H971.46a9.19,9.19,0,0,0-9.2,9.19v198.85a9.19,9.19,0,0,0,9.2,9.19" transform="translate(-604.03 -747.9)"/>
      <path class="cls-1" d="M971.46,1100.86h21.26a9.18,9.18,0,0,0,9.18-9.19V892.82a9.18,9.18,0,0,0-9.18-9.19H971.46a9.19,9.19,0,0,0-9.2,9.19v198.85A9.19,9.19,0,0,0,971.46,1100.86Z" transform="translate(-604.03 -747.9)"/>
    </g>
    <g>
      <line class="cls-1" x1="418.07" y1="723.91" x2="421.64" y2="725.09"/>
      <polygon class="cls-1" points="434.71 754.81 424.02 740.55 418.07 723.91 418.07 723.91 407.38 717.96 395.49 707.27 387.17 694.19 384.79 678.74 393.11 695.38 407.38 709.64 424.02 719.15 429.96 734.6 438.28 750.05 450.17 764.32 434.71 754.81"/>
      <polygon class="cls-1" points="438.28 750.05 429.96 734.6 424.02 719.15 407.38 709.64 393.11 695.38 384.79 678.74 389.55 666.86 397.87 658.53 407.38 652.59 413.32 640.71 419.26 631.2 439.47 632.39 457.3 639.52 476.31 649.03 488.2 663.29 500.09 679.93 507.22 697.76 508.41 717.96 498.9 725.09 487.01 727.47 485.82 734.6 477.5 748.87 464.43 758.37 450.17 764.32 438.28 750.05"/>
      <line class="cls-1" x1="418.07" y1="649.03" x2="407.38" y2="652.59"/>
      <line class="cls-1" x1="488.2" y1="719.15" x2="487.01" y2="727.47"/>
    </g>
    <line class="cls-1" x1="421.64" y1="243.6" x2="418.07" y2="244.78"/>
    <polygon class="cls-1" points="413.32 327.98 407.38 316.1 407.38 316.1 407.38 316.1 397.87 308.97 389.55 299.46 384.79 288.76 393.11 273.31 407.38 259.05 424.02 248.35 429.96 231.71 438.28 216.26 450.17 204.37 464.43 207.94 477.5 219.82 483.45 229.33 485.82 231.71 487.01 240.03 498.9 243.6 508.41 250.73 507.22 269.74 500.09 288.76 488.2 305.4 476.31 318.48 457.3 329.17 439.47 336.3 419.26 337.49 413.32 327.98"/>
    <line class="cls-1" x1="407.38" y1="316.1" x2="418.07" y2="318.48"/>
    <polyline class="cls-1" points="450.17 121.17 438.28 134.25 429.96 149.7 424.02 166.34 407.38 174.66 393.11 188.92 384.79 205.56 387.17 190.11 395.49 177.04 407.38 166.34 418.07 161.59 418.07 160.4 418.07 158.02 424.02 143.76 434.71 129.49 450.17 121.17"/>
    <line class="cls-1" x1="421.64" y1="159.21" x2="418.07" y2="160.4"/>
    <polyline class="cls-1" points="450.17 121.17 464.43 125.93 477.5 135.44 485.82 149.7 487.01 158.02 498.9 160.4 508.41 166.34 504.84 188.92 496.52 209.13 483.45 229.33 477.5 219.82 464.43 207.94 450.17 204.37 434.71 213.88 424.02 228.14 418.07 244.78 414.51 245.97 407.38 232.9 407.38 231.71 407.38 231.71 405 230.52 397.87 226.96 389.55 216.26 387.17 215.07 384.79 205.56 393.11 188.92 407.38 174.66 424.02 166.34 429.96 149.7 438.28 134.25 450.17 121.17"/>
    <line class="cls-1" x1="407.38" y1="232.9" x2="418.07" y2="236.46"/>
    <line class="cls-1" x1="487.01" y1="240.03" x2="488.2" y2="248.35"/>
    <line class="cls-1" x1="487.01" y1="158.02" x2="488.2" y2="165.15"/>
    <polygon class="cls-1" points="387.17 274.5 395.49 260.24 405 251.92 407.38 248.35 414.51 245.97 418.07 244.78 424.02 228.14 434.71 213.88 450.17 204.37 438.28 216.26 429.96 231.71 424.02 248.35 407.38 259.05 393.11 273.31 384.79 288.76 387.17 274.5"/>
  </g>
  <g>
    <path class="cls-1" d="M1518.81,1629.85l16.62-64.85a17.15,17.15,0,0,1,21-12.4l92.64,23.75a17.14,17.14,0,0,1,12.4,21l-16.62,64.84" transform="translate(-604.03 -747.9)"/>
    <line class="cls-1" x1="1058.32" y1="811.13" x2="947.15" y2="782.64"/>
    <line class="cls-1" x1="1039.22" y1="824.01" x2="1043.5" y2="807.33"/>
    <line class="cls-1" x1="958.39" y1="804.27" x2="961.97" y2="786.44"/>
    <path class="cls-1" d="M1444.63,2011.67" transform="translate(-604.03 -747.9)"/>
    <path class="cls-1" d="M1701.08,1754.57l64.85,16.62a17.14,17.14,0,0,1,12.4,21l-23.75,92.64a17.15,17.15,0,0,1-20.95,12.4l-63-16.15" transform="translate(-604.03 -747.9)"/>
    <line class="cls-1" x1="1165.54" y1="1151.58" x2="1194.04" y2="1040.41"/>
    <line class="cls-1" x1="1152.67" y1="1132.49" x2="1169.34" y2="1136.76"/>
    <line class="cls-1" x1="1173.56" y1="1050.96" x2="1190.93" y2="1056.4"/>
    <path class="cls-1" d="M1444.63,1904.7l-58.12,29.17a17.14,17.14,0,0,1-23.11-7.66l-42.9-85.48a17.14,17.14,0,0,1,7.67-23.1l59.83-30" transform="translate(-604.03 -747.9)"/>
    <line class="cls-1" x1="695.17" y1="1095.86" x2="747.31" y2="1198.1"/>
    <line class="cls-1" x1="718.74" y1="1102.09" x2="702.12" y2="1109.5"/>
    <line class="cls-1" x1="756.11" y1="1175.36" x2="740.36" y2="1184.47"/>
    <path class="cls-1" d="M1585.6,1631.17c-85.23-21.84-171.35,29.14-192,113.68-21.84,85.23,29.14,171.35,113.68,192,85.23,21.84,171.35-29.14,192-113.68C1719.49,1740.53,1668.5,1654.4,1585.6,1631.17Z" transform="translate(-604.03 -747.9)"/>
  </g>
  <g>
    <rect class="cls-1" x="365.95" y="1440.79" width="150.45" height="619.73"/>
    <polygon class="cls-1" points="377.75 1758.78 377.75 1750.34 506.57 1767.22 505.59 1777.06 377.75 1758.78"/>
    <polygon class="cls-1" points="505.59 1716.59 376.77 1727.84 376.77 1737.68 506.57 1726.43 505.59 1716.59"/>
    <polygon class="cls-1" points="505.59 1797.45 376.77 1808.71 376.77 1817.14 506.57 1805.89 505.59 1797.45"/>
    <rect class="cls-1" x="376.77" y="1842.46" width="128.82" height="9.84"/>
    <rect class="cls-1" x="376.77" y="1869.18" width="128.82" height="9.84"/>
    <polygon class="cls-1" points="377.75 1908.56 377.75 1900.12 506.57 1917 505.59 1926.84 377.75 1908.56"/>
    <rect class="cls-1" x="376.77" y="1614.62" width="128.82" height="9.84"/>
    <polygon class="cls-1" points="377.75 1654 377.75 1645.57 506.57 1662.44 505.59 1672.29 377.75 1654"/>
    <polygon class="cls-1" points="505.59 1682.83 376.77 1694.09 376.77 1703.93 506.57 1694.09 505.59 1682.83"/>
    <rect class="cls-1" x="376.77" y="1533.53" width="128.82" height="9.84"/>
    <polygon class="cls-1" points="377.75 1571.5 377.75 1561.65 506.57 1579.94 505.59 1589.78 377.75 1571.5"/>
    <polygon class="cls-1" points="505.59 1464.15 376.77 1475.4 376.77 1483.84 506.57 1475.4 505.59 1464.15"/>
    <rect class="cls-1" x="376.77" y="1509.15" width="128.82" height="9.84"/>
    <rect class="cls-1" x="376.77" y="1982.86" width="128.82" height="9.84"/>
    <polygon class="cls-1" points="377.75 2020.83 377.75 2010.99 506.57 2029.27 505.59 2039.12 377.75 2020.83"/>
    <rect class="cls-1" x="376.77" y="1958.49" width="128.82" height="9.84"/>
  </g>
  <path class="cls-1" d="M2282.15,1429.37H2176.71l1.17,447.55h104.27" transform="translate(-604.03 -747.9)"/>
  <line class="cls-1" x1="1617.2" y1="822.06" x2="1604.32" y2="822.06"/>
  <line class="cls-1" x1="1618.38" y1="822.06" x2="1606.66" y2="822.06"/>
  <line class="cls-1" x1="1606.66" y1="988.43" x2="1612.52" y2="988.43"/>
  <g>
    <path class="cls-2" d="M1201.9,2887.47h-31.57v-4.2l28.18-46.63h14.89v42H1222v8.83h-8.56v12.93h-11.5Zm.17-8.83v-33l-19.08,33Z" transform="translate(-604.03 -747.9)"/>
    <path class="cls-2" d="M1237,2901a6.89,6.89,0,0,1-5-2,6.65,6.65,0,0,1-2-5,7.09,7.09,0,1,1,14.18,0,6.62,6.62,0,0,1-2.05,5A7,7,0,0,1,1237,2901Z" transform="translate(-604.03 -747.9)"/>
    <path class="cls-2" d="M1274.93,2901.29q-10.8,0-16.5-5.26a19.75,19.75,0,0,1-6.24-13.91h11c.54,3.33,1.65,5.82,3.35,7.49s4.44,2.49,8.25,2.49a10.64,10.64,0,0,0,8.47-3.48q3-3.47,3-9.45,0-5.79-3.08-9.18a10.8,10.8,0,0,0-8.42-3.39q-8.47,0-13.29,5.53h-6.06l.53-35.49h38.7V2846h-29.6l-.09,17.3q4.63-5.36,13.73-5.35,8.74,0,14.18,5.8t5.44,15.6q0,10.08-6.51,16T1274.93,2901.29Z" transform="translate(-604.03 -747.9)"/>
  </g>
  <g>
    <path class="cls-2" d="M1767,2754q-11.15,0-17.39-5.62t-6.59-15h10.79a13.6,13.6,0,0,0,3.65,8.52q3.12,3.16,9.28,3.16,12.12,0,12.12-10.34t-11.5-10.43h-4.91v-8.48H1767q10.62,0,10.61-9.36a8.65,8.65,0,0,0-2.54-6.55q-2.54-2.46-7.35-2.46a11.85,11.85,0,0,0-8.16,2.81,11.56,11.56,0,0,0-3.7,7.72H1745.3a19.94,19.94,0,0,1,6.56-14q6-5.47,16-5.48,9.72,0,15.39,4.86a15.49,15.49,0,0,1,5.66,12.26q0,9.9-10.35,13.91a16,16,0,0,1,9.06,5.26,15.41,15.41,0,0,1,3.25,10.17q0,8.82-6.46,13.95T1767,2754Z" transform="translate(-604.03 -747.9)"/>
    <path class="cls-2" d="M1806.83,2753.73a6.9,6.9,0,0,1-5-2,6.65,6.65,0,0,1-2-4.95,7,7,0,0,1,7-7.05,7,7,0,0,1,5.09,2.05,6.85,6.85,0,0,1,2,5,6.69,6.69,0,0,1-2,4.95A7,7,0,0,1,1806.83,2753.73Z" transform="translate(-604.03 -747.9)"/>
    <path class="cls-2" d="M1845.18,2754q-13.11,0-19-8.11t-5.93-21.76v-1.52q0-16.23,7.27-25.19a23.42,23.42,0,0,1,19.12-9q8.84,0,14.23,4.28t6.55,12.57h-11.06a10.19,10.19,0,0,0-3.12-5.79q-2.22-1.87-6.68-1.88a12,12,0,0,0-10.39,5.67q-3.89,5.66-4.15,16.45,4.82-8.21,15.78-8.21,9.2,0,15.07,5.76t5.89,15q0,9.72-6.38,15.7T1845.18,2754Zm-.18-8.74a11.37,11.37,0,0,0,8.65-3.48,12.79,12.79,0,0,0,3.3-9.18q0-5.89-3.21-9.36a11.32,11.32,0,0,0-8.74-3.48,12.08,12.08,0,0,0-8.87,3.39,11.74,11.74,0,0,0-3.44,8.74q0,6.33,3.39,9.85A11.8,11.8,0,0,0,1845,2745.26Z" transform="translate(-604.03 -747.9)"/>
  </g>
  <g>
    <path class="cls-2" d="M1747.78,2084q-10.8,0-16.5-5.26t-6.24-13.91h11c.54,3.33,1.65,5.83,3.35,7.49s4.44,2.5,8.25,2.5a10.64,10.64,0,0,0,8.47-3.48q3-3.48,3-9.45,0-5.79-3.08-9.18a10.8,10.8,0,0,0-8.42-3.39q-8.48,0-13.29,5.53h-6.06l.53-35.49h38.7v9.36H1738l-.09,17.3q4.63-5.36,13.73-5.35,8.73,0,14.18,5.79t5.44,15.61q0,10.08-6.51,16T1747.78,2084Z" transform="translate(-604.03 -747.9)"/>
    <path class="cls-2" d="M1785.76,2083.74a6.87,6.87,0,0,1-5-2,6.65,6.65,0,0,1-2-4.95,7,7,0,0,1,7-7,6.91,6.91,0,0,1,5.09,2.05,6.82,6.82,0,0,1,2.05,5,6.69,6.69,0,0,1-2.05,4.95A7,7,0,0,1,1785.76,2083.74Z" transform="translate(-604.03 -747.9)"/>
    <path class="cls-2" d="M1823.93,2084q-11.15,0-17.39-5.61t-6.6-15h10.79a13.66,13.66,0,0,0,3.66,8.51q3.12,3.16,9.27,3.17,12.13,0,12.13-10.35t-11.5-10.43h-4.91v-8.47h4.55q10.6,0,10.61-9.36a8.71,8.71,0,0,0-2.54-6.56q-2.55-2.45-7.36-2.45a11.85,11.85,0,0,0-8.16,2.81,11.55,11.55,0,0,0-3.7,7.71h-10.52a19.94,19.94,0,0,1,6.55-14q6-5.49,16-5.49,9.72,0,15.38,4.86a15.47,15.47,0,0,1,5.67,12.26q0,9.9-10.35,13.92a16,16,0,0,1,9,5.26,15.37,15.37,0,0,1,3.26,10.16q0,8.84-6.47,14T1823.93,2084Z" transform="translate(-604.03 -747.9)"/>
  </g>
  <g>
    <path class="cls-2" d="M1519.17,1233.89l-13.47,9.19v-10.44l14.8-10.52h10.62v63.76h-11.95Z" transform="translate(-604.03 -747.9)"/>
    <path class="cls-2" d="M1541.9,1283.74l24.08-25.41q9.72-10.26,9.72-18.11a9.82,9.82,0,0,0-2.5-7.13,9.34,9.34,0,0,0-7-2.59q-9.9,0-11.41,12.67h-10.88q.62-10.53,6.55-16.23t16.1-5.71q9.8,0,15.42,5.17t5.62,13.65a22.48,22.48,0,0,1-3.17,11.37,54.28,54.28,0,0,1-9.31,11.45l-14.18,13.83H1588v9.18H1541.9Z" transform="translate(-604.03 -747.9)"/>
    <path class="cls-2" d="M1604.86,1286.5a6.88,6.88,0,0,1-5-2,6.69,6.69,0,0,1-2-5,7,7,0,0,1,7-7,6.9,6.9,0,0,1,5.08,2.06,6.77,6.77,0,0,1,2,5,6.65,6.65,0,0,1-2,5A7,7,0,0,1,1604.86,1286.5Z" transform="translate(-604.03 -747.9)"/>
    <path class="cls-2" d="M1643,1286.77q-11.14,0-17.38-5.62t-6.6-15h10.79a13.6,13.6,0,0,0,3.65,8.52q3.12,3.16,9.28,3.16,12.12,0,12.12-10.34t-11.5-10.43h-4.9v-8.47H1643q10.62,0,10.62-9.37a8.68,8.68,0,0,0-2.55-6.55q-2.53-2.45-7.35-2.45a11.8,11.8,0,0,0-8.16,2.81,11.51,11.51,0,0,0-3.7,7.71h-10.52a19.93,19.93,0,0,1,6.55-14q6-5.48,16-5.48,9.7,0,15.38,4.86a15.49,15.49,0,0,1,5.66,12.26q0,9.9-10.34,13.91a16,16,0,0,1,9.05,5.26,15.41,15.41,0,0,1,3.25,10.17q0,8.82-6.46,14T1643,1286.77Z" transform="translate(-604.03 -747.9)"/>
  </g>
  <polyline class="cls-3" points="0 1648.53 355.21 1648.53 355.21 1852.77 0 1852.77"/>
  <rect class="cls-2" x="1539.61" y="2323.51" width="33.89" height="253.64" transform="translate(2509.08 4152.76) rotate(180)"/>
  <rect class="cls-2" x="1539.61" y="2837.45" width="33.89" height="274.72" transform="translate(2509.08 5201.72) rotate(180)"/>
  <rect class="cls-2" x="1675.04" y="2880.19" width="33.89" height="274.72" transform="translate(2779.93 5287.19) rotate(180)"/>
  <rect class="cls-2" x="1608.9" y="2839.05" width="33.89" height="116.15" transform="translate(-1875.31 3775.08) rotate(-90)"/>
  <rect class="cls-2" x="1608.9" y="2948.15" width="33.89" height="116.15" transform="translate(-1984.4 3884.17) rotate(-90)"/>
  <rect class="cls-2" x="1823.19" y="2047.13" width="33.89" height="586.65" transform="translate(-1104.35 3432.69) rotate(-90)"/>
  <g>
    <g id="LINE-49">
      <polygon class="cls-4" points="938.43 1819.05 938.43 1844.18 950.78 1844.18 950.78 1847.71 960.48 1847.71 960.48 1819.05 938.43 1819.05"/>
    </g>
    <g id="LINE-50">
      <polygon class="cls-4" points="938.43 2075.67 938.43 2094.17 960.48 2094.17 960.48 2072.15 950.78 2072.15 950.78 2075.67 938.43 2075.67"/>
    </g>
    <polygon class="cls-4" points="706.02 1843.67 706.49 1852.3 938.43 1852.3 937.96 1843.67 706.02 1843.67"/>
    <path class="cls-4" d="M1542.46,2823.57c-123.47,0-224.89-99-231.94-223.37" transform="translate(-604.03 -747.9)"/>
  </g>
  <g>
    <line class="cls-5" x1="585.76" y1="4.41" x2="1463.06" y2="4.41"/>
    <line class="cls-6" x1="585" y1="44.68" x2="1462.3" y2="44.67"/>
    <line class="cls-6" x1="926.93" y1="4.65" x2="926.93" y2="44.91"/>
  </g>
  <rect class="cls-2" x="283.42" y="93.95" width="71.52" height="2328.04"/>
  <rect class="cls-2" x="907.52" y="3090" width="71.52" height="88.26" transform="translate(-2794.87 3329.52) rotate(-90)"/>
  <rect class="cls-2" x="1711.27" y="2711.94" width="71.52" height="844.37" transform="translate(-1991.12 4133.26) rotate(-90)"/>
  <rect class="cls-2" x="1493.67" y="104.26" width="71.52" height="2281.97"/>
  <polyline class="cls-2" points="1565.19 121.02 1328.43 121.02 1328.43 0 1565.19 0"/>
  <rect class="cls-2" x="1041.94" y="593.4" width="121.02" height="430.01" transform="translate(-309.98 1162.96) rotate(-90)"/>
  <g>
    <g id="LINE-49-2" data-name="LINE-49">
      <polygon class="cls-4" points="383.39 2382.22 414.09 2382.22 414.09 2367.14 418.4 2367.14 418.4 2355.29 383.39 2355.29 383.39 2382.22"/>
    </g>
    <g id="LINE-50-2" data-name="LINE-50">
      <polygon class="cls-4" points="696.88 2382.22 719.48 2382.22 719.48 2355.29 692.57 2355.29 692.57 2367.14 696.88 2367.14 696.88 2382.22"/>
    </g>
    <polygon class="cls-4" points="413.46 2666.13 424.01 2665.55 424.01 2382.22 413.46 2382.8 413.46 2666.13"/>
    <path class="cls-4" d="M1300.91,3130.12c0,150.82-121,274.71-272.87,283.33" transform="translate(-604.03 -747.9)"/>
  </g>
</svg>
